<svg version="1.1" id="Layer_1" xmlns="http://www.w3.org/2000/svg" xmlns:xlink="http://www.w3.org/1999/xlink" x="0px" y="0px"
	 width="100%" viewBox="0 0 1024 1024" enable-background="new 0 0 1024 1024" xml:space="preserve">
<path fill="#000000" opacity="1.000000" stroke="none" 
	d="
M567.446167,784.322510 
	C617.422119,774.724304 661.883911,754.174805 700.983337,722.286682 
	C729.949890,698.662659 753.678345,670.540283 771.932495,637.852112 
	C787.237915,610.444458 798.152222,581.410217 803.301697,550.434753 
	C807.039795,527.948547 808.670654,505.323486 806.931396,482.404388 
	C804.440308,449.576630 797.131287,418.096161 783.982056,387.924377 
	C780.362732,379.619385 783.684937,371.327515 791.548645,367.904907 
	C799.101501,364.617645 807.309753,367.870483 810.924744,376.106598 
	C821.132080,399.362396 828.206726,423.539001 832.466370,448.614136 
	C835.344482,465.556244 836.779785,482.625366 836.867310,499.703247 
	C836.957458,517.286316 835.490356,534.847656 832.668274,552.310913 
	C827.249146,585.845398 816.347229,617.417603 800.503967,647.377380 
	C784.874573,676.932800 764.878174,703.220703 741.008118,726.556274 
	C708.904724,757.940674 671.949219,781.880432 629.932251,797.789001 
	C604.950256,807.247803 579.143616,813.362610 552.563904,816.493042 
	C532.315186,818.877869 512.040222,819.569580 491.775360,818.177917 
	C458.070160,815.863342 425.350555,808.664917 393.811249,796.380310 
	C361.403839,783.757629 331.781769,766.354187 305.091675,744.093201 
	C281.283813,724.236206 260.617249,701.448975 243.382431,675.645020 
	C220.477219,641.351318 204.316040,604.219299 196.201721,563.645874 
	C190.814056,536.706116 189.327316,509.472473 190.941177,482.209259 
	C193.322754,441.976593 203.283234,403.457733 220.742081,367.041046 
	C241.135376,324.503571 269.356171,288.046844 305.924255,258.104889 
	C335.767273,233.669357 368.929321,215.242996 405.425842,202.864075 
	C428.158752,195.153488 451.491150,190.228668 475.378143,187.451401 
	C494.165985,185.267029 512.988953,184.897171 531.729614,185.895294 
	C584.782166,188.720856 634.455872,203.486481 680.453979,230.281219 
	C698.924927,241.040894 716.166443,253.531998 732.687927,267.522064 
	C736.566528,264.026489 737.965820,259.259979 740.626160,255.353149 
	C741.746826,253.707352 742.465393,251.783005 743.619019,250.165222 
	C746.673096,245.882584 751.007935,246.034851 753.547913,250.644897 
	C755.065186,253.398712 756.088379,256.432770 757.246460,259.375183 
	C766.452148,282.764648 775.651367,306.156647 784.806458,329.565979 
	C785.755859,331.993530 787.254761,334.640411 784.866333,337.019958 
	C782.497009,339.380493 779.597961,338.507477 776.887329,337.685913 
	C749.319458,329.330383 722.271057,319.447662 695.137939,309.815033 
	C692.369202,308.832123 689.795898,307.518341 689.799377,304.038391 
	C689.802856,300.574371 692.473328,299.376251 695.101318,298.142181 
	C700.494995,295.609406 705.853577,293.001862 711.463318,290.311493 
	C709.460815,286.501892 706.188171,284.734619 703.389160,282.492432 
	C661.580627,249.001556 614.373535,227.744568 561.398132,219.147690 
	C540.256409,215.716797 519.021240,214.456314 497.744598,215.534668 
	C457.951019,217.551529 419.922821,226.994476 383.835815,244.201904 
	C351.580353,259.582336 322.922821,279.908661 298.464172,305.893524 
	C266.176544,340.195831 243.315704,380.013763 230.365585,425.409332 
	C222.604172,452.616364 218.803329,480.364532 219.381927,508.648315 
	C220.104477,543.970398 227.471985,577.934204 241.512131,610.339478 
	C261.018219,655.360352 289.860596,693.340942 328.242950,724.019226 
	C367.666565,755.529541 412.268036,775.525879 461.858643,784.687012 
	C486.580994,789.254089 511.490601,789.827759 536.451660,788.482483 
	C546.690491,787.930603 556.846558,785.842834 567.446167,784.322510 
z"/>
<path fill="#000000" opacity="1.000000" stroke="none" 
	d="
M420.030609,681.033813 
	C411.389099,689.383850 403.252777,697.760071 394.573486,705.529663 
	C381.824432,716.942383 364.695160,711.272583 360.680267,694.621399 
	C359.975555,691.698730 359.612854,688.763977 359.629974,685.734863 
	C359.705109,672.406311 359.584656,659.076233 359.721527,645.748596 
	C359.755676,642.422485 358.884918,640.947815 355.341553,639.944763 
	C317.484161,629.227661 294.648285,604.431152 287.009399,565.829651 
	C286.079803,561.132263 285.880005,556.229004 285.871613,551.420288 
	C285.789154,504.102448 285.796783,456.784424 285.826202,409.466461 
	C285.840576,386.392822 292.241913,365.478455 307.376282,347.699463 
	C322.716309,329.678802 342.004730,318.458954 365.760010,316.767731 
	C400.178406,314.317352 434.688324,315.964294 469.156494,315.829956 
	C528.136353,315.600098 587.117798,315.785675 646.098572,315.788940 
	C691.675415,315.791473 729.338440,346.666016 738.062073,391.331085 
	C738.917236,395.709229 739.413818,400.163971 739.405212,404.702972 
	C739.314453,452.687225 738.850952,500.678345 739.489502,548.654236 
	C740.117737,595.849792 706.431091,635.385193 659.879150,642.023499 
	C652.333618,643.099487 644.593750,643.091431 636.942871,643.104675 
	C580.128174,643.203247 523.313232,643.222961 466.498596,643.117554 
	C461.847534,643.108887 458.345245,644.297607 454.961365,647.631531 
	C443.571716,658.852905 431.873291,669.760864 420.030609,681.033813 
M507.499939,612.658813 
	C553.662842,612.655701 599.825806,612.641113 645.988708,612.666321 
	C650.845764,612.668945 655.599854,611.992004 660.282349,610.839172 
	C690.695862,603.351196 709.647766,579.102112 709.650269,547.729675 
	C709.653931,501.566742 709.633301,455.403748 709.683167,409.240875 
	C709.687317,405.392456 709.356262,401.624939 708.639709,397.853149 
	C702.932434,367.811523 677.210327,346.372559 646.746216,346.369659 
	C556.753479,346.361084 466.760773,346.366119 376.768036,346.379913 
	C343.457367,346.385010 315.382080,374.542633 315.357910,408.013855 
	C315.323944,455.010040 315.367554,502.006317 315.318848,549.002441 
	C315.314148,553.534851 315.923798,557.987183 316.910950,562.339050 
	C323.493622,591.359253 345.591675,610.144470 375.863342,612.650391 
	C384.953583,613.402893 389.292603,618.035156 389.332886,627.236206 
	C389.386169,639.401611 389.315521,651.567627 389.366241,663.733032 
	C389.372772,665.306519 388.819946,667.012024 390.101074,668.779480 
	C392.224823,666.747864 394.293030,664.860107 396.260620,662.872742 
	C410.555237,648.434204 424.854828,634.000366 439.095673,619.508850 
	C443.638062,614.886536 448.780975,612.452698 455.505676,612.566833 
	C472.499359,612.855530 489.501282,612.659912 507.499939,612.658813 
z"/>
<path fill="#000000" opacity="1.000000" stroke="none" 
	d="
M598.825989,473.018372 
	C595.866882,463.981171 593.026428,455.323853 590.185913,446.666534 
	C589.945679,446.670441 589.705383,446.674377 589.465149,446.678284 
	C589.465149,448.538605 589.552979,450.403748 589.451843,452.258545 
	C588.154541,476.059113 588.415771,499.885101 588.149292,523.703735 
	C588.104187,527.735413 589.016052,529.592590 593.392761,530.130066 
	C599.766418,530.912598 600.941467,532.698914 600.729675,537.972412 
	C600.565796,542.054565 598.846008,544.569763 594.539062,544.887512 
	C583.887146,545.673401 573.219849,545.407654 562.562561,545.206604 
	C559.179565,545.142822 557.779297,542.652283 557.669312,539.390198 
	C557.547791,535.784973 557.422974,532.218750 561.828613,530.840698 
	C564.720398,529.936157 568.852295,531.087830 570.213257,527.778381 
	C571.277527,525.190308 570.583618,521.875305 570.653320,518.882874 
	C571.328003,489.921295 571.904968,460.956787 572.758972,432.000488 
	C572.909973,426.882996 571.711487,424.350464 566.094543,424.198486 
	C560.921326,424.058533 559.371765,421.376648 559.641785,415.597076 
	C559.869873,410.717590 562.763794,409.653168 567.020813,409.611328 
	C577.342041,409.509949 587.677368,410.183441 597.985413,409.011444 
	C603.132568,408.426239 605.730408,411.085358 607.260010,415.952881 
	C614.191711,438.010620 621.386047,459.985870 628.505920,481.984314 
	C628.961487,483.391724 629.586304,484.744385 630.513489,487.084198 
	C635.104004,473.213318 639.375488,460.182434 643.732605,447.180206 
	C647.275940,436.606323 651.022644,426.099579 654.471741,415.495575 
	C655.799988,411.411926 658.135315,409.479340 662.493835,409.627472 
	C671.324707,409.927490 680.140015,409.432526 688.955811,408.854309 
	C692.660583,408.611328 696.522583,408.694366 697.360718,413.738312 
	C698.347656,419.677826 697.166443,421.878326 691.258240,423.571289 
	C688.041687,424.492950 687.264221,426.327881 687.304993,429.414581 
	C687.661499,456.388275 688.056702,483.359772 689.137878,510.317169 
	C689.318176,514.811584 689.606079,519.339966 689.254944,523.806274 
	C688.927673,527.968262 690.350586,530.091614 694.484192,530.385620 
	C699.131409,530.716309 700.625122,533.414124 700.521240,537.794678 
	C700.414856,542.281433 698.748474,544.187378 693.958130,544.483337 
	C681.637329,545.244629 669.320740,545.375610 656.992371,545.332825 
	C651.223267,545.312805 649.166016,543.708191 648.721069,538.962097 
	C648.280640,534.264526 650.057556,531.132385 655.052979,530.572083 
	C659.516541,530.071472 660.997681,527.828674 660.858093,523.260864 
	C660.150757,500.114624 661.320740,476.945312 660.173767,453.796692 
	C660.094055,452.187653 660.453003,450.556885 660.165344,448.849213 
	C651.542175,474.141266 642.940186,499.440582 634.269653,524.716431 
	C633.159668,527.952332 632.442444,531.598999 628.067871,532.349121 
	C619.354553,533.843384 617.513489,531.990479 615.479797,525.223450 
	C610.261780,507.860107 604.493164,490.662231 598.825989,473.018372 
z"/>
<path fill="#000000" opacity="1.000000" stroke="none" 
	d="
M524.276611,494.801971 
	C530.031494,505.727051 535.676392,516.294128 541.148621,526.949829 
	C542.434570,529.453857 543.969910,530.628601 546.896057,530.748962 
	C551.983643,530.958313 553.561340,533.197632 553.342407,538.701111 
	C553.166809,543.113464 551.161377,545.441345 546.516785,545.369080 
	C539.357178,545.257629 532.185608,545.108154 525.036621,545.401184 
	C520.388245,545.591675 517.626221,543.726685 515.541504,539.713135 
	C507.482147,524.196899 500.169464,508.331970 492.987671,492.400726 
	C492.256683,490.779175 491.793365,489.027069 489.859131,488.105804 
	C484.560852,485.582336 481.336914,487.480927 481.336273,493.308807 
	C481.335083,503.801178 481.494324,514.296814 481.271912,524.784363 
	C481.184784,528.892883 482.080780,530.816406 486.722900,530.797180 
	C493.238434,530.770142 495.371521,533.782349 494.244629,540.132874 
	C493.682892,543.298584 491.946014,545.291809 488.544525,545.292786 
	C474.055542,545.297119 459.566071,545.326233 445.077881,545.208252 
	C440.772980,545.173218 438.990387,542.330322 438.693359,538.358765 
	C438.399597,534.430786 439.493988,531.422119 443.921600,530.668396 
	C445.065491,530.473816 446.189819,529.925781 447.320251,529.934082 
	C451.162323,529.962280 451.751678,527.850769 451.836273,524.486572 
	C452.602325,494.022064 452.793884,463.554657 452.665680,433.083069 
	C452.631592,424.980011 452.681122,424.833435 444.742035,423.391937 
	C440.243256,422.575104 438.535126,420.020142 438.674988,415.749420 
	C438.832947,410.927216 440.893616,408.677155 445.803436,408.750946 
	C451.618561,408.838409 457.429260,409.615784 463.238953,409.582336 
	C473.717224,409.522034 484.200409,408.706177 494.668335,408.903687 
	C505.337646,409.105011 515.679565,410.775330 525.316711,416.312653 
	C546.643738,428.566803 545.720093,460.793884 528.360840,475.192871 
	C526.695801,476.573944 525.129089,478.315308 523.196411,479.085388 
	C517.944031,481.178192 518.153625,484.299652 520.748352,488.343414 
	C522.003723,490.299835 522.993530,492.426636 524.276611,494.801971 
M481.487335,469.759003 
	C487.039124,473.546783 492.831879,472.083862 498.306976,469.976746 
	C509.143463,465.806213 513.006409,452.121674 511.104401,441.794800 
	C508.982422,430.273285 504.535156,426.778442 492.775146,426.252258 
	C490.616669,426.155670 488.394806,426.242218 486.320892,425.747070 
	C481.998749,424.715210 481.215179,426.701172 481.264984,430.483124 
	C481.433594,443.287445 481.360565,456.094971 481.487335,469.759003 
z"/>
<path fill="#000000" opacity="1.000000" stroke="none" 
	d="
M392.012512,406.645813 
	C402.602081,405.966827 412.317657,408.341125 422.102386,410.250427 
	C426.078918,411.026367 428.315857,413.162262 428.684845,417.209290 
	C429.397003,425.020111 429.359863,432.841095 428.756531,440.648315 
	C428.446350,444.661804 426.240601,447.026154 422.016937,447.249359 
	C417.555756,447.485107 413.596344,446.855896 412.009003,441.845978 
	C410.903198,438.356018 409.587280,434.902161 408.857758,431.331543 
	C408.039551,427.326660 405.713715,425.500000 401.920166,424.578217 
	C385.174713,420.509033 371.427460,427.710449 366.412659,444.289948 
	C360.319275,464.435211 360.797974,485.054016 364.638855,505.503418 
	C366.358276,514.657898 371.012543,522.627625 379.318665,527.881104 
	C391.975708,535.886475 408.135956,530.350342 411.453125,517.906067 
	C411.961975,515.996887 413.029297,514.239746 413.804016,512.397949 
	C416.299774,506.464600 420.917053,504.538635 427.012390,506.807465 
	C429.398956,507.695770 430.334045,509.419464 430.335968,511.808533 
	C430.342163,519.474060 430.241516,527.141052 430.369629,534.804443 
	C430.435944,538.771118 427.428436,539.777222 424.780975,540.948730 
	C417.904602,543.991699 410.645599,545.886536 403.230560,546.975342 
	C390.570984,548.834290 377.936157,548.575745 365.799622,544.184937 
	C351.822998,539.128357 342.320038,528.990112 336.894806,515.439087 
	C327.219482,491.272247 327.385712,466.819214 336.216614,442.371277 
	C344.674927,418.954773 368.241455,405.599030 392.012512,406.645813 
z"/>
</svg>